<?xml version="1.0" encoding="utf-8"?>
<!-- Generator: Adobe Illustrator 18.0.0, SVG Export Plug-In . SVG Version: 6.00 Build 0)  -->
<!DOCTYPE svg PUBLIC "-//W3C//DTD SVG 1.1//EN" "http://www.w3.org/Graphics/SVG/1.1/DTD/svg11.dtd">
<svg version="1.1" id="レイヤー_1" xmlns="http://www.w3.org/2000/svg" xmlns:xlink="http://www.w3.org/1999/xlink" x="0px"
	 y="0px" viewBox="0 0 64.6 15.9" enable-background="new 0 0 64.6 15.9" xml:space="preserve">
<g>
	<path d="M0.2,13.5C4,10,6.6,7.2,6.6,5c0-1.4-0.8-2.2-2-2.2c-1,0-1.9,0.7-2.6,1.5l-2-2C1.5,0.8,2.9,0,5.1,0c3,0,5,1.9,5,4.8
		c0,2.6-2.3,5.5-4.6,7.9c0.8-0.1,1.8-0.2,2.5-0.2h2.8v3.1H0.2V13.5z"/>
	<path d="M10.7,7.9c0-5.3,2.2-7.9,5.4-7.9c3.2,0,5.4,2.6,5.4,7.9c0,5.3-2.2,8-5.4,8S10.7,13.1,10.7,7.9z M18.1,7.9c0-4.2-0.9-5-2-5
		c-1.1,0-2,0.9-2,5c0,4.2,0.9,5.2,2,5.2C17.2,13,18.1,12.1,18.1,7.9z"/>
	<path d="M21.9,12.6h3.3V3.9h-2.8V1.7c1.6-0.3,2.7-0.7,3.8-1.4h2.7v12.3h2.8v3h-9.7V12.6z"/>
	<path d="M31.8,11.8c0-1.9,1.1-3.1,2.5-3.9V7.8c-1.2-0.9-2-2.1-2-3.7c0-2.6,2-4.1,4.9-4.1c2.8,0,4.6,1.6,4.6,4.1
		c0,1.5-0.9,2.7-1.9,3.4v0.1c1.5,0.8,2.6,2,2.6,4.1c0,2.4-2.1,4.2-5.4,4.2C34.1,15.9,31.8,14.2,31.8,11.8z M39,11.6
		c0-1.3-1.2-1.9-3-2.7c-0.6,0.6-1,1.5-1,2.5c0,1.3,1,2,2.2,2C38.2,13.3,39,12.8,39,11.6z M38.8,4.3c0-1.1-0.6-1.8-1.7-1.8
		c-0.8,0-1.5,0.5-1.5,1.6c0,1.2,0.9,1.9,2.4,2.5C38.6,5.9,38.8,5.1,38.8,4.3z"/>
</g>
<g>
	<path d="M49.2,14.7h0.7v0.9h-6.1v-2.3h5.4V14.7z M44.6,14.7H46V14h-1.4V14.7z M48.3,14h-1.5v0.6h1.5V14z M47.9,10.1
		c0.9-0.3,1.7-0.9,2.1-1.8c0.2,0.2,0.5,0.5,0.8,0.6c-0.4,0.8-1.2,1.4-2.1,1.8c0.8,0.3,1.5,1,2,2.3c-0.2,0.1-0.5,0.4-0.7,0.6
		c-0.5-1.3-1.2-1.9-2.1-2.2V13H47v-0.4h-2.6v-1.4h-1.1v-0.9h1.1V8.7H47V8.4h0.8V10.1z M47,11.2c-0.2,0-0.4,0-0.6,0h-1.1v0.6H47V11.2
		z M45.3,10.3h1.1c0.2,0,0.4,0,0.6,0V9.6h-1.7V10.3z"/>
	<path d="M43.6,5.6c0.5,0.2,1,0.4,1.5,0.6h5.6v0.9h-4c0.2,0.2,0.5,0.3,0.6,0.5c-0.2,0.1-0.8,0.3-1,0.5c-0.7-0.6-1.9-1.2-3.1-1.6
		L43.6,5.6z M47.5,0.5c0.3,0.3,0.6,0.8,0.8,1.1c0.6-0.3,1-0.7,1.3-1.2c0.2,0.2,0.5,0.5,0.7,0.6c-0.7,1.1-2,1.6-3.6,2v0.2
		c0.1,0.1,0.2,0.3,0.3,0.4c1.1-1.3,2.8-1.3,3.3-0.6c0.2,0.2,0.3,0.5,0.3,0.8c0,0.2,0,0.4,0,0.6c-0.2,0-0.5,0.1-0.8,0.2
		c0.2,0.3,0.4,0.7,0.5,1c-0.2,0.1-0.5,0.3-0.7,0.5c-0.3-0.8-0.8-1.9-1.3-2.5c-0.1,0-0.2,0.1-0.3,0.1c0.4,0.6,0.8,1.2,1,1.8
		c-0.2,0.1-0.4,0.3-0.6,0.4C48.4,5.3,48,4.5,47.7,4c-0.1,0.1-0.1,0.1-0.2,0.2C47.7,4.6,47.9,5,48,5.4c-0.1,0.1-0.5,0.4-0.6,0.5
		c-0.2-0.6-0.4-1.1-0.7-1.6v1.2h-1.2c-0.2,0.2-0.3,0.4-0.4,0.6c-0.5-0.7-1.2-1.3-1.8-1.6l0.2-0.9c0.1,0.1,0.2,0.1,0.3,0.2V2.6
		l-0.1-0.2l0.4-0.6c0.2,0.2,0.5,0.3,0.8,0.5V0.7h1.9v1.4c0.3-0.1,0.6-0.2,0.9-0.3c-0.2-0.3-0.5-0.6-0.7-0.8L47.5,0.5z M46.1,4.6v-1
		h-0.6v1H46.1z M44.5,4.2c0.1,0.1,0.3,0.2,0.4,0.3V3.4c-0.1-0.1-0.3-0.2-0.4-0.3V4.2z M49.2,3.3c0.2,0.3,0.5,0.7,0.7,1.1
		c0-0.2,0-0.4,0-0.5c0-0.2,0-0.3-0.2-0.4C49.7,3.4,49.5,3.3,49.2,3.3z M45.5,1.6v1.1h0.6V1.6H45.5z"/>
	<path d="M57.3,10.5c-0.1,0-0.3,0-0.4,0v3.6c0,0.3,0,0.8,0,1h-1.1c0-0.3,0-0.6,0-1v-3.6h-3.3V14c0,0.3,0,0.8,0,1h-1.1
		c0-0.3,0-0.7,0-1v-4c0-0.2,0-0.6,0-0.7c0.2,0,0.5,0,0.7,0h4.1c0.3,0,0.7,0,0.9,0V10.5z"/>
	<path d="M55.3,4.7c-0.8-1.3-2-2.4-3.1-2.9l1.1-0.6c1.1,0.6,2.2,1.7,2.9,2.9c0.5,0.8,0.9,1.8,1.1,2.9l-1,0.7
		C56.2,6.5,55.8,5.5,55.3,4.7z M52.8,4.7l0.8,0.8c-0.4,0.4-1.3,1.4-1.7,2l-0.8-0.7C51.5,6.2,52.3,5.2,52.8,4.7z"/>
	<path d="M60.5,13.8c-0.2-0.9-0.6-2-0.9-2.7c-0.1-0.3-0.2-0.5-0.4-0.8c-0.2,0.1-0.4,0.2-0.6,0.2c-0.5,0-1-0.4-1-0.9
		c0-0.5,0.4-0.9,1-0.9c0.5,0,0.9,0.4,0.9,0.9c0,0.2-0.1,0.4-0.2,0.5l0.8-0.3c0.1,0.3,0.3,0.7,0.4,0.9c0.3,0.8,0.7,2.1,1,3.1H63
		c0.3,0,0.4-0.2,0.5-0.5c0-0.2,0-0.6,0-0.9c0-0.8-0.1-2.1-0.3-2.8h1.2c0.1,0.7,0.2,1.9,0.2,2.8c0,0.5,0,1-0.1,1.3
		c-0.1,0.7-0.5,1.1-1.2,1.1H59c-0.2,0-0.6,0-0.8,0.1v-1.2c0.2,0,0.6,0.1,0.8,0.1H60.5z M58.6,9.2c-0.3,0-0.5,0.2-0.5,0.5
		c0,0.2,0.2,0.5,0.5,0.5c0.3,0,0.5-0.2,0.5-0.5C59.1,9.4,58.9,9.2,58.6,9.2z"/>
</g>
</svg>
